# xmcd
#
# Track frame offsets:
#	150
#	14342
#	29077
#	44041
#	59484
#	75105
#	89255
#	107106
#	121541
#	138782
#	154886
#	170245
#	186449
#	203514
#	220692
#	234061
#
# Disc length: 3310 seconds
#
# Revision: 1
# Processed by: cddbd v1.5.2PL0 Copyright (c) Steve Scherf et al.
# Submitted via: audiograbber 1.83.01
#
DISCID=d00cec10
DTITLE=Various Artist - CDX 600
DYEAR=2014
DGENRE=Country
TTITLE0=Kenny Chesney - American Kids
TTITLE1=Jerrod Niemann - Buzz Back Girl
TTITLE2=Sara Evans (duet w. Isaac Slade - Can't Stop Loving You
TTITLE3=Native Run - Good On You
TTITLE4=Canaan Smith - Love You Like That
TTITLE5=Tyler Farr - Whiskey In My Water (Top Shelf Mix)
TTITLE6=Ray Price ft. Martina McBride - An Affair To Remember
TTITLE7=Ray Scott - Drinkin' Beer
TTITLE8=Debbie Cochran - Everything Changes
TTITLE9=Danika Portz - Greatest Show On Earth
TTITLE10=Pawnshop Kings - Love Like Jesus
TTITLE11=Stevie Lee Woods - California Girls Have Gone Country
TTITLE12=Bruce Larson - Fishin' Pole Dancin'
TTITLE13=Kaylee Rutland - Good Day To Get Gone
TTITLE14=Michael Scott - Radio Song
TTITLE15=Jared Blake - Stomp
EXTD=
EXTT0=
EXTT1=
EXTT2=
EXTT3=
EXTT4=
EXTT5=
EXTT6=
EXTT7=
EXTT8=
EXTT9=
EXTT10=
EXTT11=
EXTT12=
EXTT13=
EXTT14=
EXTT15=
PLAYORDER=
